<mxfile host="app.diagrams.net" modified="2023-12-07T11:57:58.466Z" agent="Mozilla/5.0 (Windows NT 10.0; Win64; x64) AppleWebKit/537.36 (KHTML, like Gecko) Chrome/120.0.0.0 Safari/537.36" etag="L2vNwoQoA7Km16sWvqrc" version="22.1.7" type="device">
  <diagram name="PÃ¡gina-1" id="sUSNQM48f50NXFWxzZOw">
    <mxGraphModel dx="1434" dy="1919" grid="1" gridSize="10" guides="1" tooltips="1" connect="1" arrows="1" fold="1" page="1" pageScale="1" pageWidth="827" pageHeight="1169" math="0" shadow="0">
      <root>
        <mxCell id="0" />
        <mxCell id="1" parent="0" />
        <mxCell id="kt-U2PHC12xYDzWlFNNI-65" value="" style="whiteSpace=wrap;html=1;aspect=fixed;" vertex="1" parent="1">
          <mxGeometry x="150" y="-30" width="790" height="790" as="geometry" />
        </mxCell>
        <mxCell id="kt-U2PHC12xYDzWlFNNI-63" value="" style="whiteSpace=wrap;html=1;aspect=fixed;" vertex="1" parent="1">
          <mxGeometry x="180" y="880" width="560" height="560" as="geometry" />
        </mxCell>
        <mxCell id="kt-U2PHC12xYDzWlFNNI-3" value="Utilizador" style="shape=umlActor;verticalLabelPosition=bottom;verticalAlign=top;html=1;" vertex="1" parent="1">
          <mxGeometry x="80" y="360" width="30" height="60" as="geometry" />
        </mxCell>
        <mxCell id="kt-U2PHC12xYDzWlFNNI-5" value="Afiliado" style="shape=umlActor;verticalLabelPosition=bottom;verticalAlign=top;html=1;" vertex="1" parent="1">
          <mxGeometry x="80" y="40" width="30" height="60" as="geometry" />
        </mxCell>
        <mxCell id="kt-U2PHC12xYDzWlFNNI-6" value="Vendedor" style="shape=umlActor;verticalLabelPosition=bottom;verticalAlign=top;html=1;" vertex="1" parent="1">
          <mxGeometry x="80" y="160" width="30" height="60" as="geometry" />
        </mxCell>
        <mxCell id="kt-U2PHC12xYDzWlFNNI-7" value="Registo" style="ellipse;whiteSpace=wrap;html=1;align=center;" vertex="1" parent="1">
          <mxGeometry x="390" y="80" width="100" height="40" as="geometry" />
        </mxCell>
        <mxCell id="kt-U2PHC12xYDzWlFNNI-9" value="" style="endArrow=none;html=1;rounded=0;exitX=0;exitY=0.5;exitDx=0;exitDy=0;entryX=0.733;entryY=0.267;entryDx=0;entryDy=0;entryPerimeter=0;" edge="1" parent="1" source="kt-U2PHC12xYDzWlFNNI-19" target="kt-U2PHC12xYDzWlFNNI-3">
          <mxGeometry width="50" height="50" relative="1" as="geometry">
            <mxPoint x="390" y="310" as="sourcePoint" />
            <mxPoint x="210" y="150" as="targetPoint" />
          </mxGeometry>
        </mxCell>
        <mxCell id="kt-U2PHC12xYDzWlFNNI-10" value="" style="endArrow=none;html=1;rounded=0;exitX=0.09;exitY=0.3;exitDx=0;exitDy=0;entryX=0.5;entryY=0.5;entryDx=0;entryDy=0;entryPerimeter=0;exitPerimeter=0;" edge="1" parent="1" source="kt-U2PHC12xYDzWlFNNI-7" target="kt-U2PHC12xYDzWlFNNI-5">
          <mxGeometry width="50" height="50" relative="1" as="geometry">
            <mxPoint x="389" y="239" as="sourcePoint" />
            <mxPoint x="200" y="310" as="targetPoint" />
          </mxGeometry>
        </mxCell>
        <mxCell id="kt-U2PHC12xYDzWlFNNI-11" value="" style="endArrow=none;html=1;rounded=0;entryX=0;entryY=0.5;entryDx=0;entryDy=0;" edge="1" parent="1" source="kt-U2PHC12xYDzWlFNNI-6" target="kt-U2PHC12xYDzWlFNNI-7">
          <mxGeometry width="50" height="50" relative="1" as="geometry">
            <mxPoint x="390" y="310" as="sourcePoint" />
            <mxPoint x="440" y="260" as="targetPoint" />
          </mxGeometry>
        </mxCell>
        <mxCell id="kt-U2PHC12xYDzWlFNNI-12" value="fazer pesquisa" style="ellipse;whiteSpace=wrap;html=1;align=center;" vertex="1" parent="1">
          <mxGeometry x="210" y="190" width="100" height="40" as="geometry" />
        </mxCell>
        <mxCell id="kt-U2PHC12xYDzWlFNNI-14" value="adicionar favoritos" style="ellipse;whiteSpace=wrap;html=1;align=center;" vertex="1" parent="1">
          <mxGeometry x="370" y="440" width="100" height="40" as="geometry" />
        </mxCell>
        <mxCell id="kt-U2PHC12xYDzWlFNNI-15" value="Log Out" style="ellipse;whiteSpace=wrap;html=1;align=center;" vertex="1" parent="1">
          <mxGeometry x="700" y="20" width="100" height="40" as="geometry" />
        </mxCell>
        <mxCell id="kt-U2PHC12xYDzWlFNNI-18" value="&amp;lt;&amp;lt;includes&amp;gt;&amp;gt;" style="html=1;verticalAlign=bottom;endArrow=open;dashed=1;endSize=8;curved=0;rounded=0;exitX=0.5;exitY=0;exitDx=0;exitDy=0;" edge="1" parent="1" source="kt-U2PHC12xYDzWlFNNI-20">
          <mxGeometry x="0.1636" y="3" relative="1" as="geometry">
            <mxPoint x="670.0000746632877" y="100.00006740802445" as="sourcePoint" />
            <mxPoint x="728.48" y="58.43" as="targetPoint" />
            <mxPoint as="offset" />
          </mxGeometry>
        </mxCell>
        <mxCell id="kt-U2PHC12xYDzWlFNNI-19" value="Fazer compras" style="ellipse;whiteSpace=wrap;html=1;align=center;" vertex="1" parent="1">
          <mxGeometry x="370" y="300" width="100" height="40" as="geometry" />
        </mxCell>
        <mxCell id="kt-U2PHC12xYDzWlFNNI-20" value="Log in" style="ellipse;whiteSpace=wrap;html=1;align=center;" vertex="1" parent="1">
          <mxGeometry x="690" y="250" width="100" height="40" as="geometry" />
        </mxCell>
        <mxCell id="kt-U2PHC12xYDzWlFNNI-22" value="&amp;lt;&amp;lt;extend&amp;gt;&amp;gt;" style="html=1;verticalAlign=bottom;endArrow=open;dashed=1;endSize=8;curved=0;rounded=0;exitX=0;exitY=0.5;exitDx=0;exitDy=0;entryX=0;entryY=0.5;entryDx=0;entryDy=0;" edge="1" parent="1" target="kt-U2PHC12xYDzWlFNNI-20">
          <mxGeometry x="-0.066" y="-9" relative="1" as="geometry">
            <mxPoint x="480" y="110" as="sourcePoint" />
            <mxPoint x="588.48" y="110" as="targetPoint" />
            <mxPoint as="offset" />
          </mxGeometry>
        </mxCell>
        <mxCell id="kt-U2PHC12xYDzWlFNNI-23" value="Recuperar Password" style="ellipse;whiteSpace=wrap;html=1;align=center;" vertex="1" parent="1">
          <mxGeometry x="520" y="10" width="100" height="40" as="geometry" />
        </mxCell>
        <mxCell id="kt-U2PHC12xYDzWlFNNI-24" value="&amp;lt;&amp;lt;extend&amp;gt;&amp;gt;" style="html=1;verticalAlign=bottom;endArrow=open;dashed=1;endSize=8;curved=0;rounded=0;exitX=1;exitY=0;exitDx=0;exitDy=0;entryX=0.19;entryY=1.025;entryDx=0;entryDy=0;entryPerimeter=0;" edge="1" parent="1" source="kt-U2PHC12xYDzWlFNNI-7" target="kt-U2PHC12xYDzWlFNNI-23">
          <mxGeometry x="-0.1943" y="2" relative="1" as="geometry">
            <mxPoint x="490" y="120" as="sourcePoint" />
            <mxPoint x="600" y="140" as="targetPoint" />
            <mxPoint as="offset" />
          </mxGeometry>
        </mxCell>
        <mxCell id="kt-U2PHC12xYDzWlFNNI-26" value="&amp;lt;&amp;lt;includes&amp;gt;&amp;gt;" style="html=1;verticalAlign=bottom;endArrow=open;dashed=1;endSize=8;curved=0;rounded=0;exitX=0.5;exitY=0;exitDx=0;exitDy=0;entryX=0.14;entryY=1.025;entryDx=0;entryDy=0;entryPerimeter=0;" edge="1" parent="1" source="kt-U2PHC12xYDzWlFNNI-14" target="kt-U2PHC12xYDzWlFNNI-20">
          <mxGeometry x="0.0762" relative="1" as="geometry">
            <mxPoint x="738.48" y="68.43" as="sourcePoint" />
            <mxPoint x="650" y="120" as="targetPoint" />
            <mxPoint as="offset" />
          </mxGeometry>
        </mxCell>
        <mxCell id="kt-U2PHC12xYDzWlFNNI-27" value="&amp;lt;&amp;lt;includes&amp;gt;&amp;gt;" style="html=1;verticalAlign=bottom;endArrow=open;dashed=1;endSize=8;curved=0;rounded=0;entryX=-0.01;entryY=0.8;entryDx=0;entryDy=0;entryPerimeter=0;" edge="1" parent="1" source="kt-U2PHC12xYDzWlFNNI-19" target="kt-U2PHC12xYDzWlFNNI-20">
          <mxGeometry x="0.3524" y="-5" relative="1" as="geometry">
            <mxPoint x="760" y="240" as="sourcePoint" />
            <mxPoint x="677" y="158" as="targetPoint" />
            <mxPoint as="offset" />
          </mxGeometry>
        </mxCell>
        <mxCell id="kt-U2PHC12xYDzWlFNNI-29" value="" style="endArrow=none;html=1;rounded=0;entryX=0.533;entryY=0.383;entryDx=0;entryDy=0;entryPerimeter=0;exitX=0;exitY=0.5;exitDx=0;exitDy=0;" edge="1" parent="1" source="kt-U2PHC12xYDzWlFNNI-14" target="kt-U2PHC12xYDzWlFNNI-3">
          <mxGeometry width="50" height="50" relative="1" as="geometry">
            <mxPoint x="350" y="400" as="sourcePoint" />
            <mxPoint x="440" y="360" as="targetPoint" />
          </mxGeometry>
        </mxCell>
        <mxCell id="kt-U2PHC12xYDzWlFNNI-30" value="" style="endArrow=none;html=1;rounded=0;exitX=0.75;exitY=0.1;exitDx=0;exitDy=0;exitPerimeter=0;entryX=0.2;entryY=1.05;entryDx=0;entryDy=0;entryPerimeter=0;" edge="1" parent="1" source="kt-U2PHC12xYDzWlFNNI-3" target="kt-U2PHC12xYDzWlFNNI-12">
          <mxGeometry width="50" height="50" relative="1" as="geometry">
            <mxPoint x="390" y="410" as="sourcePoint" />
            <mxPoint x="440" y="360" as="targetPoint" />
          </mxGeometry>
        </mxCell>
        <mxCell id="kt-U2PHC12xYDzWlFNNI-31" value="&amp;lt;&amp;lt;includes&amp;gt;&amp;gt;" style="html=1;verticalAlign=bottom;endArrow=open;dashed=1;endSize=8;curved=0;rounded=0;exitX=0.5;exitY=0;exitDx=0;exitDy=0;entryX=0.5;entryY=1;entryDx=0;entryDy=0;" edge="1" parent="1" source="kt-U2PHC12xYDzWlFNNI-19" target="kt-U2PHC12xYDzWlFNNI-12">
          <mxGeometry x="0.2" relative="1" as="geometry">
            <mxPoint x="463" y="315" as="sourcePoint" />
            <mxPoint x="692" y="212" as="targetPoint" />
            <mxPoint as="offset" />
          </mxGeometry>
        </mxCell>
        <mxCell id="kt-U2PHC12xYDzWlFNNI-33" value="Area Utilizador" style="ellipse;whiteSpace=wrap;html=1;align=center;" vertex="1" parent="1">
          <mxGeometry x="360" y="565" width="100" height="40" as="geometry" />
        </mxCell>
        <mxCell id="kt-U2PHC12xYDzWlFNNI-34" value="" style="endArrow=none;html=1;rounded=0;exitX=0.06;exitY=0.1;exitDx=0;exitDy=0;exitPerimeter=0;entryX=0.5;entryY=0.5;entryDx=0;entryDy=0;entryPerimeter=0;" edge="1" parent="1" source="kt-U2PHC12xYDzWlFNNI-33" target="kt-U2PHC12xYDzWlFNNI-3">
          <mxGeometry width="50" height="50" relative="1" as="geometry">
            <mxPoint x="380" y="470" as="sourcePoint" />
            <mxPoint x="158" y="343" as="targetPoint" />
          </mxGeometry>
        </mxCell>
        <mxCell id="kt-U2PHC12xYDzWlFNNI-35" value="&amp;lt;&amp;lt;includes&amp;gt;&amp;gt;" style="html=1;verticalAlign=bottom;endArrow=open;dashed=1;endSize=8;curved=0;rounded=0;exitX=0.98;exitY=0.175;exitDx=0;exitDy=0;entryX=0.35;entryY=1.025;entryDx=0;entryDy=0;exitPerimeter=0;entryPerimeter=0;" edge="1" parent="1" source="kt-U2PHC12xYDzWlFNNI-33" target="kt-U2PHC12xYDzWlFNNI-20">
          <mxGeometry x="0.0762" relative="1" as="geometry">
            <mxPoint x="430" y="450" as="sourcePoint" />
            <mxPoint x="727" y="208" as="targetPoint" />
            <mxPoint as="offset" />
          </mxGeometry>
        </mxCell>
        <mxCell id="kt-U2PHC12xYDzWlFNNI-36" value="aceder biblioteca" style="ellipse;whiteSpace=wrap;html=1;align=center;" vertex="1" parent="1">
          <mxGeometry x="360" y="650" width="100" height="40" as="geometry" />
        </mxCell>
        <mxCell id="kt-U2PHC12xYDzWlFNNI-37" value="" style="endArrow=none;html=1;rounded=0;exitX=0;exitY=0.25;exitDx=0;exitDy=0;exitPerimeter=0;entryX=0.567;entryY=0.833;entryDx=0;entryDy=0;entryPerimeter=0;" edge="1" parent="1" source="kt-U2PHC12xYDzWlFNNI-36" target="kt-U2PHC12xYDzWlFNNI-3">
          <mxGeometry width="50" height="50" relative="1" as="geometry">
            <mxPoint x="376" y="579" as="sourcePoint" />
            <mxPoint x="168" y="353" as="targetPoint" />
          </mxGeometry>
        </mxCell>
        <mxCell id="kt-U2PHC12xYDzWlFNNI-38" value="&amp;lt;&amp;lt;includes&amp;gt;&amp;gt;" style="html=1;verticalAlign=bottom;endArrow=open;dashed=1;endSize=8;curved=0;rounded=0;exitX=0.93;exitY=0.225;exitDx=0;exitDy=0;exitPerimeter=0;" edge="1" parent="1" source="kt-U2PHC12xYDzWlFNNI-36" target="kt-U2PHC12xYDzWlFNNI-20">
          <mxGeometry x="0.0762" relative="1" as="geometry">
            <mxPoint x="468" y="582" as="sourcePoint" />
            <mxPoint x="685" y="211" as="targetPoint" />
            <mxPoint as="offset" />
          </mxGeometry>
        </mxCell>
        <mxCell id="kt-U2PHC12xYDzWlFNNI-39" value="" style="endArrow=none;html=1;rounded=0;exitX=0;exitY=0.5;exitDx=0;exitDy=0;entryX=0.6;entryY=0.633;entryDx=0;entryDy=0;entryPerimeter=0;" edge="1" parent="1" source="kt-U2PHC12xYDzWlFNNI-41" target="kt-U2PHC12xYDzWlFNNI-46">
          <mxGeometry width="50" height="50" relative="1" as="geometry">
            <mxPoint x="430" y="1140" as="sourcePoint" />
            <mxPoint x="135" y="1220" as="targetPoint" />
          </mxGeometry>
        </mxCell>
        <mxCell id="kt-U2PHC12xYDzWlFNNI-40" value="pesquisa" style="ellipse;whiteSpace=wrap;html=1;align=center;" vertex="1" parent="1">
          <mxGeometry x="250" y="1020" width="100" height="40" as="geometry" />
        </mxCell>
        <mxCell id="kt-U2PHC12xYDzWlFNNI-41" value="checkout" style="ellipse;whiteSpace=wrap;html=1;align=center;" vertex="1" parent="1">
          <mxGeometry x="344" y="1200" width="100" height="40" as="geometry" />
        </mxCell>
        <mxCell id="kt-U2PHC12xYDzWlFNNI-42" value="Log in" style="ellipse;whiteSpace=wrap;html=1;align=center;" vertex="1" parent="1">
          <mxGeometry x="610" y="1190" width="100" height="40" as="geometry" />
        </mxCell>
        <mxCell id="kt-U2PHC12xYDzWlFNNI-43" value="&amp;lt;&amp;lt;includes&amp;gt;&amp;gt;" style="html=1;verticalAlign=bottom;endArrow=open;dashed=1;endSize=8;curved=0;rounded=0;entryX=0.37;entryY=1.075;entryDx=0;entryDy=0;entryPerimeter=0;" edge="1" parent="1" source="kt-U2PHC12xYDzWlFNNI-41" target="kt-U2PHC12xYDzWlFNNI-47">
          <mxGeometry x="0.3524" y="-5" relative="1" as="geometry">
            <mxPoint x="800" y="1070" as="sourcePoint" />
            <mxPoint x="717" y="988" as="targetPoint" />
            <mxPoint as="offset" />
          </mxGeometry>
        </mxCell>
        <mxCell id="kt-U2PHC12xYDzWlFNNI-44" value="" style="endArrow=none;html=1;rounded=0;exitX=0.8;exitY=0.217;exitDx=0;exitDy=0;exitPerimeter=0;entryX=0.2;entryY=1.05;entryDx=0;entryDy=0;entryPerimeter=0;" edge="1" parent="1" target="kt-U2PHC12xYDzWlFNNI-40" source="kt-U2PHC12xYDzWlFNNI-46">
          <mxGeometry width="50" height="50" relative="1" as="geometry">
            <mxPoint x="143" y="1196" as="sourcePoint" />
            <mxPoint x="480" y="1190" as="targetPoint" />
          </mxGeometry>
        </mxCell>
        <mxCell id="kt-U2PHC12xYDzWlFNNI-45" value="&amp;lt;&amp;lt;includes&amp;gt;&amp;gt;" style="html=1;verticalAlign=bottom;endArrow=open;dashed=1;endSize=8;curved=0;rounded=0;exitX=0;exitY=1;exitDx=0;exitDy=0;entryX=0.5;entryY=0;entryDx=0;entryDy=0;" edge="1" parent="1" source="kt-U2PHC12xYDzWlFNNI-48" target="kt-U2PHC12xYDzWlFNNI-40">
          <mxGeometry x="0.2" relative="1" as="geometry">
            <mxPoint x="503" y="1145" as="sourcePoint" />
            <mxPoint x="732" y="1042" as="targetPoint" />
            <mxPoint as="offset" />
          </mxGeometry>
        </mxCell>
        <mxCell id="kt-U2PHC12xYDzWlFNNI-46" value="Utilizador" style="shape=umlActor;verticalLabelPosition=bottom;verticalAlign=top;html=1;" vertex="1" parent="1">
          <mxGeometry x="90" y="1160" width="30" height="60" as="geometry" />
        </mxCell>
        <mxCell id="kt-U2PHC12xYDzWlFNNI-47" value="gerir carrinho" style="ellipse;whiteSpace=wrap;html=1;align=center;" vertex="1" parent="1">
          <mxGeometry x="500" y="1010" width="100" height="40" as="geometry" />
        </mxCell>
        <mxCell id="kt-U2PHC12xYDzWlFNNI-48" value="aceder produto" style="ellipse;whiteSpace=wrap;html=1;align=center;" vertex="1" parent="1">
          <mxGeometry x="380" y="920" width="100" height="40" as="geometry" />
        </mxCell>
        <mxCell id="kt-U2PHC12xYDzWlFNNI-49" value="&amp;lt;&amp;lt;includes&amp;gt;&amp;gt;" style="html=1;verticalAlign=bottom;endArrow=open;dashed=1;endSize=8;curved=0;rounded=0;entryX=0;entryY=0.5;entryDx=0;entryDy=0;exitX=1;exitY=0.5;exitDx=0;exitDy=0;" edge="1" parent="1" source="kt-U2PHC12xYDzWlFNNI-41" target="kt-U2PHC12xYDzWlFNNI-42">
          <mxGeometry x="0.3524" y="-5" relative="1" as="geometry">
            <mxPoint x="420" y="1211" as="sourcePoint" />
            <mxPoint x="547" y="1063" as="targetPoint" />
            <mxPoint as="offset" />
          </mxGeometry>
        </mxCell>
        <mxCell id="kt-U2PHC12xYDzWlFNNI-50" value="&amp;lt;&amp;lt;includes&amp;gt;&amp;gt;" style="html=1;verticalAlign=bottom;endArrow=open;dashed=1;endSize=8;curved=0;rounded=0;entryX=0.74;entryY=0.975;entryDx=0;entryDy=0;entryPerimeter=0;exitX=0.2;exitY=0;exitDx=0;exitDy=0;exitPerimeter=0;" edge="1" parent="1" source="kt-U2PHC12xYDzWlFNNI-47" target="kt-U2PHC12xYDzWlFNNI-48">
          <mxGeometry x="-0.1376" y="3" relative="1" as="geometry">
            <mxPoint x="420" y="1211" as="sourcePoint" />
            <mxPoint x="547" y="1063" as="targetPoint" />
            <mxPoint as="offset" />
          </mxGeometry>
        </mxCell>
        <mxCell id="kt-U2PHC12xYDzWlFNNI-51" value="pagamento" style="ellipse;whiteSpace=wrap;html=1;align=center;" vertex="1" parent="1">
          <mxGeometry x="460" y="1280" width="100" height="40" as="geometry" />
        </mxCell>
        <mxCell id="kt-U2PHC12xYDzWlFNNI-52" value="&amp;lt;&amp;lt;includes&amp;gt;&amp;gt;" style="html=1;verticalAlign=bottom;endArrow=open;dashed=1;endSize=8;curved=0;rounded=0;entryX=0;entryY=0;entryDx=0;entryDy=0;exitX=1;exitY=1;exitDx=0;exitDy=0;" edge="1" parent="1" source="kt-U2PHC12xYDzWlFNNI-41" target="kt-U2PHC12xYDzWlFNNI-51">
          <mxGeometry x="0.3524" y="-5" relative="1" as="geometry">
            <mxPoint x="454" y="1230" as="sourcePoint" />
            <mxPoint x="620" y="1220" as="targetPoint" />
            <mxPoint as="offset" />
          </mxGeometry>
        </mxCell>
        <mxCell id="kt-U2PHC12xYDzWlFNNI-53" value="CartÃ£o CrÃ©dito" style="ellipse;whiteSpace=wrap;html=1;align=center;" vertex="1" parent="1">
          <mxGeometry x="610" y="1270" width="100" height="40" as="geometry" />
        </mxCell>
        <mxCell id="kt-U2PHC12xYDzWlFNNI-54" value="MBWAY" style="ellipse;whiteSpace=wrap;html=1;align=center;" vertex="1" parent="1">
          <mxGeometry x="600" y="1330" width="100" height="40" as="geometry" />
        </mxCell>
        <mxCell id="kt-U2PHC12xYDzWlFNNI-55" value="Ã  cobranÃ§a" style="ellipse;whiteSpace=wrap;html=1;align=center;" vertex="1" parent="1">
          <mxGeometry x="590" y="1390" width="100" height="40" as="geometry" />
        </mxCell>
        <mxCell id="kt-U2PHC12xYDzWlFNNI-56" value="" style="endArrow=classic;html=1;rounded=0;entryX=0.5;entryY=1;entryDx=0;entryDy=0;exitX=0.04;exitY=0.25;exitDx=0;exitDy=0;exitPerimeter=0;" edge="1" parent="1" source="kt-U2PHC12xYDzWlFNNI-55" target="kt-U2PHC12xYDzWlFNNI-51">
          <mxGeometry width="50" height="50" relative="1" as="geometry">
            <mxPoint x="420" y="1560" as="sourcePoint" />
            <mxPoint x="470" y="1510" as="targetPoint" />
          </mxGeometry>
        </mxCell>
        <mxCell id="kt-U2PHC12xYDzWlFNNI-57" value="" style="endArrow=classic;html=1;rounded=0;entryX=1;entryY=1;entryDx=0;entryDy=0;exitX=0.07;exitY=0.75;exitDx=0;exitDy=0;exitPerimeter=0;" edge="1" parent="1" source="kt-U2PHC12xYDzWlFNNI-54" target="kt-U2PHC12xYDzWlFNNI-51">
          <mxGeometry width="50" height="50" relative="1" as="geometry">
            <mxPoint x="604" y="1410" as="sourcePoint" />
            <mxPoint x="520" y="1330" as="targetPoint" />
          </mxGeometry>
        </mxCell>
        <mxCell id="kt-U2PHC12xYDzWlFNNI-58" value="" style="endArrow=classic;html=1;rounded=0;entryX=1;entryY=0.5;entryDx=0;entryDy=0;exitX=0;exitY=1;exitDx=0;exitDy=0;" edge="1" parent="1" source="kt-U2PHC12xYDzWlFNNI-53" target="kt-U2PHC12xYDzWlFNNI-51">
          <mxGeometry width="50" height="50" relative="1" as="geometry">
            <mxPoint x="617" y="1370" as="sourcePoint" />
            <mxPoint x="555" y="1324" as="targetPoint" />
          </mxGeometry>
        </mxCell>
        <mxCell id="kt-U2PHC12xYDzWlFNNI-60" value="Compra" style="text;html=1;align=center;verticalAlign=middle;resizable=0;points=[];autosize=1;strokeColor=none;fillColor=none;" vertex="1" parent="1">
          <mxGeometry x="185" y="898" width="70" height="30" as="geometry" />
        </mxCell>
        <mxCell id="kt-U2PHC12xYDzWlFNNI-66" value="Processo geral" style="text;html=1;strokeColor=none;fillColor=none;align=center;verticalAlign=middle;whiteSpace=wrap;rounded=0;" vertex="1" parent="1">
          <mxGeometry x="170" y="10" width="60" height="30" as="geometry" />
        </mxCell>
      </root>
    </mxGraphModel>
  </diagram>
</mxfile>
